<svg width="20" height="20" viewBox="0 0 20 20" fill="none" xmlns="http://www.w3.org/2000/svg">
<g id="arrow down">
<path id="Vector" d="M9.83438 13.8344C9.63967 13.8348 9.45097 13.7669 9.30104 13.6427L4.30104 9.47604C4.13086 9.3346 4.02384 9.13134 4.00353 8.91098C3.98321 8.69062 4.05126 8.47122 4.19271 8.30104C4.33416 8.13086 4.53742 8.02384 4.75777 8.00353C4.97813 7.98321 5.19753 8.05126 5.36771 8.19271L9.83438 11.926L14.301 8.32604C14.3863 8.25682 14.4844 8.20513 14.5896 8.17394C14.6949 8.14274 14.8053 8.13266 14.9145 8.14428C15.0237 8.1559 15.1295 8.18898 15.2259 8.24162C15.3223 8.29427 15.4073 8.36544 15.476 8.45104C15.5524 8.53673 15.6102 8.63725 15.6458 8.74631C15.6815 8.85537 15.6942 8.97062 15.6833 9.08484C15.6723 9.19906 15.6379 9.30979 15.5822 9.41009C15.5264 9.51038 15.4506 9.59809 15.3594 9.66771L10.3594 13.6927C10.2051 13.7973 10.0203 13.8472 9.83438 13.8344Z" fill="white"/>
</g>
</svg>
