<svg width="20" height="20" viewBox="0 0 20 20" fill="none" xmlns="http://www.w3.org/2000/svg">
<g id="globe">
<path id="Vector" d="M18.3337 9.99984C18.3337 8.90549 18.1181 7.82185 17.6993 6.81081C17.2805 5.79976 16.6667 4.8811 15.8929 4.10728C15.1191 3.33346 14.2004 2.71963 13.1894 2.30084C12.1783 1.88205 11.0947 1.6665 10.0003 1.6665C7.79019 1.6665 5.67057 2.54448 4.10777 4.10728C2.54497 5.67008 1.66699 7.7897 1.66699 9.99984C1.66699 12.21 2.54497 14.3296 4.10777 15.8924C5.67057 17.4552 7.79019 18.3332 10.0003 18.3332C12.2105 18.3332 14.3301 17.4552 15.8929 15.8924C17.4557 14.3296 18.3337 12.21 18.3337 9.99984ZM16.6087 9.1665H14.167C14.0296 7.20662 13.358 5.3218 12.2253 3.7165C13.389 4.12981 14.4151 4.85823 15.1891 5.82054C15.963 6.78285 16.4545 7.94123 16.6087 9.1665ZM7.56699 10.8332H12.5003C12.2871 12.892 11.4095 14.8255 10.0003 16.3415C8.59205 14.8318 7.73465 12.8909 7.56699 10.8332ZM7.56699 9.1665C7.76106 7.11803 8.61498 5.18793 10.0003 3.6665C11.4209 5.17161 12.3004 7.10654 12.5003 9.1665H7.56699ZM7.86699 3.6915C6.72828 5.30569 6.04599 7.1971 5.89199 9.1665H3.39199C3.54941 7.92609 4.0525 6.75494 4.8438 5.78681C5.6351 4.81869 6.68271 4.09261 7.86699 3.6915ZM3.39199 10.8332H5.89199C6.02923 12.8009 6.70689 14.6926 7.85033 16.2998C6.6703 15.8968 5.62698 15.1708 4.83888 14.2045C4.05078 13.2381 3.5495 12.0701 3.39199 10.8332ZM12.1837 16.2915C13.324 14.6837 14.0092 12.798 14.167 10.8332H16.6253C16.4677 12.0667 15.9683 13.2316 15.1834 14.1961C14.3985 15.1607 13.3594 15.8865 12.1837 16.2915Z" fill="white"/>
</g>
</svg>
