<svg width="20" height="20" viewBox="0 0 20 20" fill="none" xmlns="http://www.w3.org/2000/svg">
<g id="template">
<path id="Vector" d="M3 3.875C3 3.64294 3.09219 3.42038 3.25628 3.25628C3.42038 3.09219 3.64294 3 3.875 3H16.125C16.3571 3 16.5796 3.09219 16.7437 3.25628C16.9078 3.42038 17 3.64294 17 3.875V5.625C17 5.85706 16.9078 6.07962 16.7437 6.24372C16.5796 6.40781 16.3571 6.5 16.125 6.5H3.875C3.64294 6.5 3.42038 6.40781 3.25628 6.24372C3.09219 6.07962 3 5.85706 3 5.625V3.875ZM3 10.875C3 10.6429 3.09219 10.4204 3.25628 10.2563C3.42038 10.0922 3.64294 10 3.875 10H9.125C9.35706 10 9.57962 10.0922 9.74372 10.2563C9.90781 10.4204 10 10.6429 10 10.875V16.125C10 16.3571 9.90781 16.5796 9.74372 16.7437C9.57962 16.9078 9.35706 17 9.125 17H3.875C3.64294 17 3.42038 16.9078 3.25628 16.7437C3.09219 16.5796 3 16.3571 3 16.125V10.875ZM13.5 10.875C13.5 10.6429 13.5922 10.4204 13.7563 10.2563C13.9204 10.0922 14.1429 10 14.375 10H16.125C16.3571 10 16.5796 10.0922 16.7437 10.2563C16.9078 10.4204 17 10.6429 17 10.875V16.125C17 16.3571 16.9078 16.5796 16.7437 16.7437C16.5796 16.9078 16.3571 17 16.125 17H14.375C14.1429 17 13.9204 16.9078 13.7563 16.7437C13.5922 16.5796 13.5 16.3571 13.5 16.125V10.875Z" stroke="white" stroke-width="1.6" stroke-linecap="round" stroke-linejoin="round"/>
</g>
</svg>
