<svg width="16" height="15" viewBox="0 0 16 15" fill="none" xmlns="http://www.w3.org/2000/svg">
<path d="M8.70809 0.274491C8.52027 0.0987344 8.26557 0 8 0C7.73443 0 7.47973 0.0987344 7.29191 0.274491L0.281144 6.83708C0.0987053 7.0139 -0.00224406 7.25071 3.78608e-05 7.49653C0.00231978 7.74234 0.107651 7.97748 0.293344 8.1513C0.479037 8.32512 0.730235 8.42372 0.992835 8.42586C1.25544 8.42799 1.50843 8.3335 1.69732 8.16272L1.99077 7.88803V14.0625C1.99077 14.3111 2.09629 14.5496 2.28411 14.7254C2.47194 14.9012 2.72668 15 2.99231 15H4.99538C5.26101 15 5.51575 14.9012 5.70358 14.7254C5.8914 14.5496 5.99692 14.3111 5.99692 14.0625V12.1875C5.99692 11.9388 6.10244 11.7004 6.29027 11.5245C6.47809 11.3487 6.73284 11.2499 6.99846 11.2499H9.00154C9.26716 11.2499 9.52191 11.3487 9.70973 11.5245C9.89756 11.7004 10.0031 11.9388 10.0031 12.1875V14.0625C10.0031 14.3111 10.1086 14.5496 10.2964 14.7254C10.4842 14.9012 10.739 15 11.0046 15H13.0077C13.2733 15 13.5281 14.9012 13.7159 14.7254C13.9037 14.5496 14.0092 14.3111 14.0092 14.0625V7.88803L14.3027 8.16272C14.4916 8.3335 14.7446 8.42799 15.0072 8.42586C15.2698 8.42372 15.521 8.32512 15.7067 8.1513C15.8923 7.97748 15.9977 7.74234 16 7.49653C16.0022 7.25071 15.9013 7.0139 15.7189 6.83708L8.70809 0.274491Z" fill="white"/>
</svg>
