<svg width="20" height="20" viewBox="0 0 20 20" fill="none" xmlns="http://www.w3.org/2000/svg">
<g id="link">
<path id="Vector" d="M12.0643 8.93571C11.4392 8.3108 10.5915 7.95975 9.70763 7.95975C8.82375 7.95975 7.97605 8.3108 7.35096 8.93571L4.01763 12.269C3.69926 12.5765 3.44532 12.9443 3.27062 13.351C3.09593 13.7577 3.00397 14.1951 3.00013 14.6377C2.99628 15.0803 3.08062 15.5192 3.24822 15.9289C3.41582 16.3385 3.66333 16.7107 3.97631 17.0237C4.28929 17.3367 4.66146 17.5842 5.07111 17.7518C5.48077 17.9194 5.9197 18.0037 6.3623 17.9999C6.8049 17.996 7.2423 17.9041 7.64898 17.7294C8.05566 17.5547 8.42347 17.3007 8.73096 16.9824L9.64929 16.0649M9.01763 11.9824C9.64272 12.6073 10.4904 12.9583 11.3743 12.9583C12.2582 12.9583 13.1059 12.6073 13.731 11.9824L17.0643 8.64904C17.6715 8.02037 18.0075 7.17836 17.9999 6.30437C17.9923 5.43038 17.6417 4.59434 17.0237 3.97631C16.4057 3.35828 15.5696 3.00772 14.6956 3.00013C13.8216 2.99253 12.9796 3.32851 12.351 3.93571L11.4343 4.85237" stroke="white" stroke-width="1.6" stroke-linecap="round" stroke-linejoin="round"/>
</g>
</svg>
