<svg width="18" height="19" viewBox="0 0 18 19" fill="none" xmlns="http://www.w3.org/2000/svg">
<g id="Group">
<path id="Vector" d="M15.6667 18.3335H14.275C13.833 18.3335 13.409 18.1579 13.0965 17.8454C12.7839 17.5328 12.6083 17.1089 12.6083 16.6669V12.1919C12.6158 12.0164 12.5627 11.8436 12.4581 11.7025C12.3534 11.5615 12.2035 11.4606 12.0333 11.4169C11.9344 11.4018 11.8333 11.4081 11.737 11.4354C11.6407 11.4628 11.5513 11.5104 11.475 11.5752C11.3964 11.6419 11.3334 11.7249 11.2902 11.8184C11.247 11.912 11.2248 12.0138 11.225 12.1169V16.6669C11.225 17.1089 11.0494 17.5328 10.7368 17.8454C10.4243 18.1579 10.0004 18.3335 9.55833 18.3335H8.16667C7.72464 18.3335 7.30072 18.1579 6.98816 17.8454C6.6756 17.5328 6.5 17.1089 6.5 16.6669V12.1169C6.5 11.4055 6.64011 10.7012 6.91232 10.044C7.18453 9.38681 7.58352 8.78968 8.0865 8.2867C8.58949 7.78372 9.18662 7.38473 9.8438 7.11251C10.501 6.8403 11.2053 6.7002 11.9167 6.7002C12.628 6.7002 13.3324 6.8403 13.9895 7.11251C14.6467 7.38473 15.2438 7.78372 15.7468 8.2867C16.2498 8.78968 16.6488 9.38681 16.921 10.044C17.1932 10.7012 17.3333 11.4055 17.3333 12.1169V16.6669C17.3333 17.1089 17.1577 17.5328 16.8452 17.8454C16.5326 18.1579 16.1087 18.3335 15.6667 18.3335ZM11.9167 9.74186C12.0471 9.73363 12.1779 9.73363 12.3083 9.74186C12.8678 9.84948 13.3715 10.1507 13.7311 10.5926C14.0908 11.0345 14.2833 11.5889 14.275 12.1585V16.6669H15.6667V12.1169C15.6667 11.1223 15.2716 10.1685 14.5683 9.46521C13.8651 8.76195 12.9112 8.36686 11.9167 8.36686C10.9221 8.36686 9.96828 8.76195 9.26502 9.46521C8.56176 10.1685 8.16667 11.1223 8.16667 12.1169V16.6669H9.55833V12.1169C9.55832 11.4899 9.80625 10.8883 10.2481 10.4433C10.6899 9.99843 11.2897 9.74626 11.9167 9.74186Z" fill="white"/>
<path id="Vector_2" d="M4.00033 18.3337H2.33366C1.89163 18.3337 1.46771 18.1581 1.15515 17.8455C0.842587 17.5329 0.666992 17.109 0.666992 16.667V8.33366C0.666992 7.89163 0.842587 7.46771 1.15515 7.15515C1.46771 6.84259 1.89163 6.66699 2.33366 6.66699H4.00033C4.44235 6.66699 4.86628 6.84259 5.17884 7.15515C5.4914 7.46771 5.66699 7.89163 5.66699 8.33366V16.667C5.66699 17.109 5.4914 17.5329 5.17884 17.8455C4.86628 18.1581 4.44235 18.3337 4.00033 18.3337ZM2.33366 8.33366V16.667H4.00033V8.33366H2.33366Z" fill="white"/>
<path id="Vector_3" d="M3.16699 5.8335C2.67254 5.8335 2.18919 5.68687 1.77807 5.41217C1.36695 5.13747 1.04651 4.74702 0.857294 4.29021C0.668075 3.83339 0.618567 3.33072 0.71503 2.84577C0.811493 2.36082 1.0496 1.91536 1.39923 1.56573C1.74886 1.2161 2.19432 0.977997 2.67927 0.881534C3.16422 0.785071 3.66689 0.834579 4.1237 1.0238C4.58052 1.21302 4.97096 1.53345 5.24567 1.94457C5.52037 2.35569 5.66699 2.83904 5.66699 3.3335C5.66699 3.99654 5.4036 4.63242 4.93476 5.10126C4.46592 5.57011 3.83003 5.8335 3.16699 5.8335ZM3.16699 2.50016C3.00218 2.50016 2.84106 2.54904 2.70402 2.64061C2.56698 2.73217 2.46017 2.86232 2.39709 3.01459C2.33402 3.16687 2.31752 3.33442 2.34967 3.49607C2.38183 3.65772 2.46119 3.80621 2.57774 3.92275C2.69428 4.0393 2.84277 4.11866 3.00442 4.15082C3.16607 4.18297 3.33362 4.16647 3.4859 4.1034C3.63817 4.04032 3.76832 3.93351 3.85988 3.79647C3.95145 3.65943 4.00033 3.49832 4.00033 3.3335C4.00033 3.11248 3.91253 2.90052 3.75625 2.74424C3.59997 2.58796 3.38801 2.50016 3.16699 2.50016Z" fill="white"/>
</g>
</svg>
