<svg width="17" height="15" viewBox="0 0 17 15" fill="none" xmlns="http://www.w3.org/2000/svg">
<g id="Group">
<path id="Vector" d="M5.83333 6.66667C6.4926 6.66667 7.13707 6.47117 7.68523 6.1049C8.2334 5.73863 8.66064 5.21803 8.91293 4.60895C9.16522 3.99986 9.23124 3.32964 9.10262 2.68303C8.974 2.03643 8.65653 1.44249 8.19036 0.976312C7.72418 0.510137 7.13024 0.192668 6.48363 0.0640506C5.83703 -0.0645668 5.16681 0.00144427 4.55772 0.253736C3.94863 0.506029 3.42804 0.93327 3.06177 1.48143C2.6955 2.0296 2.5 2.67406 2.5 3.33334C2.5 4.21739 2.85119 5.06524 3.47631 5.69036C4.10143 6.31548 4.94928 6.66667 5.83333 6.66667ZM5.83333 1.66667C6.16297 1.66667 6.4852 1.76442 6.75928 1.94755C7.03337 2.13069 7.24699 2.39099 7.37313 2.69553C7.49928 3.00007 7.53228 3.33518 7.46798 3.65849C7.40367 3.98179 7.24493 4.27876 7.01184 4.51185C6.77876 4.74493 6.48179 4.90367 6.15848 4.96798C5.83518 5.03229 5.50007 4.99928 5.19553 4.87313C4.89098 4.74699 4.63069 4.53337 4.44755 4.25929C4.26442 3.9852 4.16667 3.66297 4.16667 3.33334C4.16667 2.89131 4.34226 2.46738 4.65482 2.15482C4.96738 1.84226 5.39131 1.66667 5.83333 1.66667Z" fill="white"/>
<path id="Vector_2" d="M12.5 8.3335C12.9945 8.3335 13.4778 8.18687 13.8889 7.91217C14.3 7.63747 14.6205 7.24702 14.8097 6.79021C14.9989 6.33339 15.0484 5.83072 14.952 5.34577C14.8555 4.86082 14.6174 4.41536 14.2678 4.06573C13.9181 3.7161 13.4727 3.478 12.9877 3.38153C12.5028 3.28507 12.0001 3.33458 11.5433 3.5238C11.0865 3.71302 10.696 4.03345 10.4213 4.44457C10.1466 4.85569 10 5.33904 10 5.8335C10 6.49654 10.2634 7.13242 10.7322 7.60126C11.2011 8.07011 11.837 8.3335 12.5 8.3335ZM12.5 5.00016C12.6648 5.00016 12.8259 5.04904 12.963 5.14061C13.1 5.23217 13.2068 5.36232 13.2699 5.51459C13.333 5.66687 13.3495 5.83442 13.3173 5.99607C13.2852 6.15772 13.2058 6.30621 13.0893 6.42275C12.9727 6.5393 12.8242 6.61866 12.6626 6.65082C12.5009 6.68297 12.3334 6.66647 12.1811 6.6034C12.0288 6.54032 11.8987 6.43351 11.8071 6.29647C11.7155 6.15943 11.6667 5.99831 11.6667 5.8335C11.6667 5.61248 11.7545 5.40052 11.9107 5.24424C12.067 5.08796 12.279 5.00016 12.5 5.00016Z" fill="white"/>
<path id="Vector_3" d="M12.5 9.16675C11.5765 9.16778 10.6795 9.47556 9.95 10.0418C9.13376 9.22872 8.09505 8.67558 6.96485 8.45211C5.83466 8.22863 4.6636 8.34483 3.59936 8.78603C2.53511 9.22724 1.62534 9.9737 0.984784 10.9313C0.344225 11.8889 0.00155849 13.0147 0 14.1668C0 14.3878 0.0877973 14.5997 0.244078 14.756C0.400358 14.9123 0.61232 15.0001 0.833333 15.0001C1.05435 15.0001 1.26631 14.9123 1.42259 14.756C1.57887 14.5997 1.66667 14.3878 1.66667 14.1668C1.66667 13.0617 2.10565 12.0019 2.88706 11.2205C3.66846 10.4391 4.72826 10.0001 5.83333 10.0001C6.9384 10.0001 7.99821 10.4391 8.77961 11.2205C9.56101 12.0019 10 13.0617 10 14.1668C10 14.3878 10.0878 14.5997 10.2441 14.756C10.4004 14.9123 10.6123 15.0001 10.8333 15.0001C11.0543 15.0001 11.2663 14.9123 11.4226 14.756C11.5789 14.5997 11.6667 14.3878 11.6667 14.1668C11.6687 13.1904 11.422 12.2297 10.95 11.3751C11.3183 11.0841 11.761 10.9026 12.2276 10.8515C12.6942 10.8003 13.1657 10.8816 13.5883 11.0859C14.0109 11.2902 14.3674 11.6094 14.617 12.0069C14.8667 12.4043 14.9994 12.864 15 13.3334C15 13.5544 15.0878 13.7664 15.2441 13.9227C15.4004 14.079 15.6123 14.1668 15.8333 14.1668C16.0543 14.1668 16.2663 14.079 16.4226 13.9227C16.5789 13.7664 16.6667 13.5544 16.6667 13.3334C16.6667 12.2284 16.2277 11.1685 15.4463 10.3871C14.6649 9.60574 13.6051 9.16675 12.5 9.16675Z" fill="white"/>
</g>
</svg>
